<?xml version="1.0" standalone="no"?><svg xmlns="http://www.w3.org/2000/svg" xmlns:xlink="http://www.w3.org/1999/xlink" style="isolation:isolate" viewBox="879.293 559.501 101.207 70.999" width="101.207" height="70.999"><path d=" M 880.149 590.058 C 880.149 584.57 884.596 580.115 890.074 580.115 C 895.552 580.115 900 584.57 900 590.058 C 900 595.545 895.552 600 890.074 600 C 884.596 600 880.149 595.545 880.149 590.058 Z " fill="none" vector-effect="non-scaling-stroke" stroke-width="1" stroke="rgb(0,0,0)" stroke-linejoin="miter" stroke-linecap="square" stroke-miterlimit="3"/><line x1="900" y1="580.058" x2="900" y2="619.942" vector-effect="non-scaling-stroke" stroke-width="1" stroke="rgb(0,0,0)" stroke-linejoin="miter" stroke-linecap="square" stroke-miterlimit="3"/><path d=" M 880 620 C 880 614.481 884.481 610 890 610 C 895.519 610 900 614.481 900 620 C 900 625.519 895.519 630 890 630 C 884.481 630 880 625.519 880 620 Z " fill="none" vector-effect="non-scaling-stroke" stroke-width="1" stroke="rgb(0,0,0)" stroke-linejoin="miter" stroke-linecap="square" stroke-miterlimit="3"/><line x1="880" y1="620" x2="900" y2="600" vector-effect="non-scaling-stroke" stroke-width="1" stroke="rgb(0,0,0)" stroke-linejoin="miter" stroke-linecap="square" stroke-miterlimit="3"/><line x1="910" y1="579.885" x2="910" y2="599.885" vector-effect="non-scaling-stroke" stroke-width="1" stroke="rgb(0,0,0)" stroke-linejoin="miter" stroke-linecap="square" stroke-miterlimit="3"/><path d=" M 910 599.885 C 910 588.846 918.962 579.885 930 579.885" fill="none" vector-effect="non-scaling-stroke" stroke-width="1" stroke="rgb(0,0,0)" stroke-linejoin="miter" stroke-linecap="square" stroke-miterlimit="3"/><path d=" M 930 590.058 C 930 584.57 934.481 580.115 940 580.115 C 945.519 580.115 950 584.57 950 590.058 C 950 595.545 945.519 600 940 600 C 934.481 600 930 595.545 930 590.058 Z " fill="none" vector-effect="non-scaling-stroke" stroke-width="1" stroke="rgb(0,0,0)" stroke-linejoin="miter" stroke-linecap="square" stroke-miterlimit="3"/><line x1="950" y1="580.115" x2="950" y2="600" vector-effect="non-scaling-stroke" stroke-width="1" stroke="rgb(0,0,0)" stroke-linejoin="miter" stroke-linecap="square" stroke-miterlimit="3"/><line x1="960" y1="580" x2="960" y2="600" vector-effect="non-scaling-stroke" stroke-width="1" stroke="rgb(0,0,0)" stroke-linejoin="miter" stroke-linecap="square" stroke-miterlimit="3"/><line x1="960" y1="560" x2="960" y2="570" vector-effect="non-scaling-stroke" stroke-width="1" stroke="rgb(0,0,0)" stroke-linejoin="miter" stroke-linecap="square" stroke-miterlimit="3"/><path d=" M 980 600 C 974.481 600 970 595.519 970 590 C 970 584.481 974.481 580 980 580" fill="none" vector-effect="non-scaling-stroke" stroke-width="1" stroke="rgb(0,0,0)" stroke-linejoin="miter" stroke-linecap="square" stroke-miterlimit="3"/></svg>